<svg xmlns="http://www.w3.org/2000/svg" xmlns:xlink="http://www.w3.org/1999/xlink" xmlns:lucid="lucid" width="1511" height="680"><g transform="translate(-60 -300)" lucid:page-tab-id="0_0"><path d="M589.12 679.77l-4.9 7.56a3.23 3.23 0 0 0 2.74 5l36.36-.28a3.14 3.14 0 0 0 2.54-4.94l-6.62-9.35a.44.44 0 0 0-.48-.17l-.3.1" stroke="#3a414a" stroke-width="2" fill="#fff"/><path d="M581.8 647s1.38-2.45 1.98-3.4c.66-.97.72-1.5 2.4-3.37 1.74-1.8 3.3-3.24 5.52-4.44 2.28-1.27 3.54-2.47 7.2-2.9 3.66-.47 4.74-.53 4.74-.53l30.36.1a6 6 0 0 1 5.98 6.02l-.02 10.73a6 6 0 0 1-6.02 5.97l-7.5-.03s.24 2.1.24 3.36c0 1.32.12 2.64-.3 4.62-.36 1.98-.72 3.72-1.8 6.12s-2.1 4.2-2.88 5.22c-.78 1.07-1.32 1.8-2.94 3.35-1.62 1.62-2.58 2.4-4.44 3.42-1.86 1.08-2.94 1.74-4.26 2.1-1.38.42-1.8.72-3.96.96-2.16.18-3.54.3-4.98.18-1.44-.17-3.06-.35-4.32-.83-1.32-.48-3.48-1.44-4.68-2.16-1.26-.7-1.38-.47-3.06-1.9-1.68-1.45-2.1-1.33-3.54-3.37-1.5-1.98-2.88-3.84-3.72-6.12-.84-2.27-1.8-5.57-1.8-5.57" stroke="#3a414a" stroke-width="2" fill="#fff"/><path d="M595.24 652.17s.6-.96 1.14-1.5c.6-.54 1.26-1.08 2.04-1.56.78-.47 1.44-.83 2.4-1.07 1.02-.3 2.7-.36 2.7-.36s1.86.12 2.88.66c1.08.48 2.46 1.2 3.36 2.28.9 1.15 1.2 1.57 1.62 2.4.48.9.78 1.4 1.08 2.53.24 1.14.42 2.16.42 2.76 0 .65.06 1.07-.06 1.97-.18.96-.06 1.14-.42 2.1-.3.96-.24 1.08-.84 2.1-.54 1.02-.6 1.26-1.2 1.98-.66.78-.84 1.08-1.56 1.62-.78.54-.96.78-2.04 1.2-1.08.48-1.26.6-2.1.72-.78.1-1.14.1-1.86.1-.78-.05-.96 0-1.8-.23-.78-.24-1.74-.6-1.74-.6s-.6-.3-1.2-.72-.66-.36-1.38-1.14c-.72-.83-1.02-.9-1.62-2.03l-.54-1.14" stroke="#3a414a" stroke-width="2" fill="#fff"/><use xlink:href="#a" transform="matrix(1,0,0,1,550,697.3692079391577) translate(6.419753086419746 17.77777777777778)"/><use xlink:href="#b" transform="matrix(1,0,0,1,550,697.3692079391577) translate(31.018518518518523 44.44444444444444)"/><path d="M1141 620c0 22.08-17.92 40-40 40s-40-17.92-40-40 17.92-40 40-40 40 17.92 40 40z" stroke="#3a414a" stroke-width="2" fill="#fff"/><path d="M1061 622.08h8.4l12.64-21.04 29.52 42.08 21.04-21.04h8.4" stroke="#3a414a" stroke-width="2" fill="none"/><use xlink:href="#c" transform="matrix(1,0,0,1,1031,665) translate(23.76543209876543 17.77777777777778)"/><use xlink:href="#d" transform="matrix(1,0,0,1,1031,665) translate(79.19753086419753 17.77777777777778)"/><use xlink:href="#e" transform="matrix(1,0,0,1,1031,665) translate(18.611111111111114 44.44444444444444)"/><use xlink:href="#f" transform="matrix(1,0,0,1,1031,665) translate(74.53703703703704 44.44444444444444)"/><use xlink:href="#g" transform="matrix(1,0,0,1,1031,665) translate(16.944444444444436 71.11111111111111)"/><path d="M340 580h26.55v90h96.6v-90h26.7" stroke="#3a414a" stroke-width="2" fill="#fff"/><use xlink:href="#h" transform="matrix(1,0,0,1,310,675) translate(30.37037037037038 24.444444444444443)"/><use xlink:href="#i" transform="matrix(1,0,0,1,310,675) translate(90.8641975308642 24.444444444444443)"/><use xlink:href="#j" transform="matrix(1,0,0,1,310,675) translate(132.77777777777777 24.444444444444443)"/><path d="M490 828h60v72h-60z" fill-opacity="0"/><path d="M490.78 899.57v-42.4s1.02-10.6 14.64-10.6c13.56 0 14.4 10.6 14.4 10.6v13.9s.78 10.5 14.4 10.5c13.56 0 14.58-10.5 14.58-10.5v-42.5" stroke="#1071e5" stroke-width="2" fill-opacity="0"/><path d="M1081.52 812.52h38.96v38.96h-38.96v-38.96zM1087.48 821.12h27.16M1101 821.12v23.6" stroke="#3a414a" fill="#fff"/><path d="M900 626a6 6 0 0 1 6-6h28a6 6 0 0 1 6 6v28a6 6 0 0 1-6 6h-28a6 6 0 0 1-6-6z" fill="none"/><path d="M904 630v20l15-10zm15 10h2zm2 0l15-10v20zM920 640v-12m-8 0c0-2.2 3.58-4 8-4s8 1.8 8 4z" stroke="#3a414a" fill="#008a0e"/><use xlink:href="#k" transform="matrix(1,0,0,1,880,665) translate(4.29012345679012 17.77777777777778)"/><use xlink:href="#l" transform="matrix(1,0,0,1,880,665) translate(13.086419753086421 44.44444444444444)"/><path d="M376 906a6 6 0 0 1 6-6h104a6 6 0 0 1 6 6v48a6 6 0 0 1-6 6H382a6 6 0 0 1-6-6z" stroke="#000" stroke-opacity="0" fill="#fff" fill-opacity="0"/><use xlink:href="#m" transform="matrix(1,0,0,1,381,905) translate(26.549382716049383 30.27777777777778)"/><path d="M1061 856.33a6 6 0 0 1 6-6h68a6 6 0 0 1 6 6v51.34a6 6 0 0 1-6 6h-68a6 6 0 0 1-6-6z" stroke="#000" stroke-opacity="0" fill="#fff" fill-opacity="0"/><use xlink:href="#n" transform="matrix(1,0,0,1,1066,855.3333333333334) translate(2.9320987654321016 17.77777777777778)"/><use xlink:href="#o" transform="matrix(1,0,0,1,1066,855.3333333333334) translate(12.62345679012346 44.44444444444444)"/><path d="M1121.98 832h240.52" stroke="#e81313" stroke-width="2" fill="none"/><path d="M1122 833H1121v-2h1.03z" stroke="#e81313" stroke-width=".05" fill="#e81313"/><path d="M1377.76 832l-14.26 4.64v-9.28z" stroke="#e81313" stroke-width="2" fill="#e81313"/><path d="M465.15 655.42h57.25a.15.15 0 0 0 .16-.15.15.15 0 0 1 .15-.16h39.77" stroke="#1071e5" stroke-width="2" fill="none"/><path d="M465.18 656.42h-1.03v-2h1.03z" stroke="#1071e5" stroke-width=".05" fill="#1071e5"/><path d="M577.73 655.1l-14.26 4.65v-9.27z" stroke="#1071e5" stroke-width="2" fill="#1071e5"/><path d="M1101 662v131.52" stroke="#e81313" stroke-width="2" fill="none"/><path d="M1101 661l1-.03v1.06h-2v-1.1z" stroke="#e81313" stroke-width=".05" fill="#e81313"/><path d="M1101 808.78l-4.64-14.26h9.28z" stroke="#e81313" stroke-width="2" fill="#e81313"/><path d="M80 326a6 6 0 0 1 6-6h108a6 6 0 0 1 6 6v48a6 6 0 0 1-6 6H86a6 6 0 0 1-6-6z" stroke="#000" stroke-opacity="0" fill="#fff" fill-opacity="0"/><use xlink:href="#p" transform="matrix(1,0,0,1,85,325) translate(1.790123456790127 30.27777777777778)"/><use xlink:href="#q" transform="matrix(1,0,0,1,85,325) translate(66.29629629629629 30.27777777777778)"/><path d="M1241 565.6c0-11.05-8.95-20-20-20s-20 8.95-20 20c0 11.04 8.95 20 20 20s20-8.96 20-20z" stroke="#3a414a" fill="#cfe4ff"/><use xlink:href="#r" transform="matrix(1,0,0,1,1206,550.599280408404) translate(3.5249999999999986 14.4)"/><path d="M820 700c0-11.05-8.95-20-20-20s-20 8.95-20 20 8.95 20 20 20 20-8.95 20-20z" stroke="#3a414a" fill="#cfe4ff"/><use xlink:href="#r" transform="matrix(1,0,0,1,785,685) translate(3.5249999999999986 14.4)"/><path d="M800 679v-38.5" stroke="#3a414a" fill="none"/><path d="M800.5 679.52l-.52-.02-.48.06V679h1z" stroke="#3a414a" stroke-width=".05" fill="#3a414a"/><path d="M800 640.5v-.5M1200 565.6h-18" stroke="#3a414a" fill="none"/><path d="M1200.5 565.62l.06.48h-.57v-1h.52z" stroke="#3a414a" stroke-width=".05" fill="#3a414a"/><path d="M1182 565.6h-.5" stroke="#3a414a" fill="none"/><path d="M201.33 460c0-11.05-8.95-20-20-20-11.04 0-20 8.95-20 20s8.96 20 20 20c11.05 0 20-8.95 20-20z" stroke="#3a414a" fill="#cfe4ff"/><use xlink:href="#r" transform="matrix(1,0,0,1,166.33333333333334,445) translate(3.5249999999999986 14.4)"/><path d="M1201 446a6 6 0 0 1 6-6h28a6 6 0 0 1 6 6v28a6 6 0 0 1-6 6h-28a6 6 0 0 1-6-6z" fill="none"/><path d="M1205 460v20l15-10zm15 10h2zm2 0l15-10v20zM1221 470v-10zm0-10h-10v-20h20v20z" stroke="#3a414a" fill="#008a0e"/><use xlink:href="#s" transform="matrix(1,0,0,1,1211.8,442) translate(2.5249999999999995 14.4)"/><path d="M1203.5 460.18H1107a6 6 0 0 0-6 6v94.32M1203.47 460.18h4.03" stroke="#e81313" stroke-width="2" fill="none"/><path d="M1101 575.76l-4.64-14.26h9.28z" stroke="#e81313" stroke-width="2" fill="#e81313"/><path d="M1238.5 460.18h76a6 6 0 0 0 6-6V446a6 6 0 0 1 6-6h76M1238.53 460.18h-4.03" stroke="#e81313" stroke-width="2" fill="none"/><path d="M1403.5 441h-1.03v-2h1.03z" stroke="#e81313" stroke-width=".05" fill="#e81313"/><path d="M1161 380.4a6 6 0 0 1 6-6h108a6 6 0 0 1 6 6v48a6 6 0 0 1-6 6h-108a6 6 0 0 1-6-6z" stroke="#000" stroke-opacity="0" fill="#fff" fill-opacity="0"/><use xlink:href="#n" transform="matrix(1,0,0,1,1166,379.40071959159604) translate(22.9320987654321 17.77777777777778)"/><use xlink:href="#t" transform="matrix(1,0,0,1,1166,379.40071959159604) translate(10.617283950617278 44.44444444444444)"/><path d="M308 520c0 4.42-3.58 8-8 8s-8-3.58-8-8 3.58-8 8-8 8 3.58 8 8" stroke="#3a414a" fill="#fff"/><path d="M284 510v20l15-10zm15 10h2zm2 0l15-10v20z" stroke="#3a414a" fill="#fff"/><use xlink:href="#u" transform="matrix(1,0,0,1,250,545) translate(13.641975308641975 17.77777777777778)"/><use xlink:href="#l" transform="matrix(1,0,0,1,250,545) translate(23.08641975308642 44.44444444444444)"/><path d="M317.5 520h71.17a6 6 0 0 1 6 6v35.5" stroke="#1071e5" stroke-width="2" fill="none"/><path d="M317.53 521h-1.03v-2h1.03z" stroke="#1071e5" stroke-width=".05" fill="#1071e5"/><path d="M394.67 576.76l-4.64-14.26h9.27z" stroke="#1071e5" stroke-width="2" fill="#1071e5"/><path d="M140 380.96V481" stroke="#1071e5" stroke-width="2" fill="none"/><path d="M141 381h-2v-1.04h2z" stroke="#1071e5" stroke-width=".05" fill="#1071e5"/><path d="M140 496.26L135.36 482h9.28z" stroke="#1071e5" stroke-width="2" fill="#1071e5"/><path d="M181.33 481v38.5" stroke="#282c33" fill="none"/><path d="M181.83 481h-1v-.52l.53.02.47-.06z" stroke="#282c33" stroke-width=".05" fill="#282c33"/><path d="M181.33 519.5v.5" stroke="#282c33" fill="none"/><path d="M1143 620h33a6 6 0 0 0 6-6v-68a6 6 0 0 0-6-6H438a6 6 0 0 0-6 6v15.5" stroke="#fc9432" stroke-width="2" fill="none"/><path d="M1143.03 621h-1.1l.07-1-.03-1h1.06z" stroke="#fc9432" stroke-width=".05" fill="#fc9432"/><path d="M432 576.76l-4.64-14.26h9.28z" stroke="#fc9432" stroke-width="2" fill="#fc9432"/><path d="M750 640c0-11.05-8.95-20-20-20s-20 8.95-20 20 8.95 20 20 20 20-8.95 20-20z" stroke="#3a414a" fill="#cfe4ff"/><use xlink:href="#v" transform="matrix(1,0,0,1,715,625) translate(3.5249999999999986 14.4)"/><path d="M160 520c0-11.05-8.95-20-20-20s-20 8.95-20 20 8.95 20 20 20 20-8.95 20-20z" stroke="#3a414a" fill="#cfe4ff"/><use xlink:href="#v" transform="matrix(1,0,0,1,125,505) translate(3.5249999999999986 14.4)"/><path d="M641.44 643.8h33.88a.15.15 0 0 1 .15.16.15.15 0 0 0 .15.15h18" stroke="#3a414a" fill="none"/><path d="M641.45 644.3h-.5l-.02-1h.52z" stroke="#3a414a" stroke-width=".05" fill="#3a414a"/><path d="M708.4 644.1l-14.27 4.64v-9.27z" stroke="#3a414a" fill="#3a414a"/><path d="M751.5 640H885" stroke="#1071e5" stroke-width="2" fill="none"/><path d="M751.53 641h-1.07l.04-1.02-.12-.98h1.15z" stroke="#1071e5" stroke-width=".05" fill="#1071e5"/><path d="M900.26 640L886 644.64v-9.28z" stroke="#1071e5" stroke-width="2" fill="#1071e5"/><path d="M937.5 637.7h54.8a6 6 0 0 0 6-6v-3.57a6 6 0 0 1 6-6h37.27M937.53 637.7h-4.03" stroke="#1071e5" stroke-width="2" fill="none"/><path d="M1056.84 622.13l-14.27 4.63v-9.27z" stroke="#1071e5" stroke-width="2" fill="#1071e5"/><path d="M260 520c0-11.05-8.95-20-20-20s-20 8.95-20 20 8.95 20 20 20 20-8.95 20-20z" stroke="#3a414a" fill="#ced4db"/><use xlink:href="#w" transform="matrix(1,0,0,1,225,505) translate(3.049999999999999 14.4)"/><path d="M161.5 520H201" stroke="#1071e5" stroke-width="2" fill="none"/><path d="M161.53 521h-1.07l.04-1.02-.12-.98h1.15z" stroke="#1071e5" stroke-width=".05" fill="#1071e5"/><path d="M216.26 520L202 524.64v-9.28z" stroke="#1071e5" stroke-width="2" fill="#1071e5"/><path d="M261 520h6.12" stroke="#3a414a" fill="none"/><path d="M261 520.5h-.52l.02-.52-.06-.48h.57z" stroke="#3a414a" stroke-width=".05" fill="#3a414a"/><path d="M281.88 520l-14.26 4.64v-9.28z" stroke="#3a414a" fill="#3a414a"/><path d="M450 746a6 6 0 0 1 6-6h28a6 6 0 0 1 6 6v28a6 6 0 0 1-6 6h-28a6 6 0 0 1-6-6z" fill="none"/><path d="M454 750v20l15-10zm15 10h2zm2 0l15-10v20zM470 760v-12m-8 0c0-2.2 3.58-4 8-4s8 1.8 8 4z" stroke="#3a414a" fill="#008a0e"/><use xlink:href="#k" transform="matrix(1,0,0,1,430,785) translate(4.29012345679012 17.77777777777778)"/><use xlink:href="#l" transform="matrix(1,0,0,1,430,785) translate(13.086419753086421 44.44444444444444)"/><path d="M414.95 672v82a6 6 0 0 0 6 6H435" stroke="#1071e5" stroke-width="2" fill="none"/><path d="M415.95 672.03h-2V671h2z" stroke="#1071e5" stroke-width=".05" fill="#1071e5"/><path d="M450.26 760L436 764.64v-9.28z" stroke="#1071e5" stroke-width="2" fill="#1071e5"/><path d="M487.5 757.7H542a6 6 0 0 1 6 6v45.8M487.53 757.7h-4.03" stroke="#1071e5" stroke-width="2" fill="none"/><path d="M548 824.76l-4.64-14.26h9.28z" stroke="#1071e5" stroke-width="2" fill="#1071e5"/><path d="M1020 580c0-11.05-8.95-20-20-20s-20 8.95-20 20 8.95 20 20 20 20-8.95 20-20z" stroke="#3a414a" fill="#cfe4ff"/><use xlink:href="#x" transform="matrix(1,0,0,1,985,565) translate(6.5 14.4)"/><path d="M1000 559v-9.08a.17.17 0 0 1 .17-.17.17.17 0 0 0 .16-.17v-9.08" stroke="#3a414a" fill="none"/><path d="M1000.5 559.52l-.52-.02-.48.06V559h1z" stroke="#3a414a" stroke-width=".05" fill="#3a414a"/><path d="M1000.33 540.5v-.5M1000 601v10.18a.14.14 0 0 1-.14.13.14.14 0 0 0-.13.15v10.18" stroke="#3a414a" fill="none"/><path d="M1000.5 601h-1v-.52l.52.02.48-.06z" stroke="#3a414a" stroke-width=".05" fill="#3a414a"/><path d="M999.73 621.62v.5" stroke="#3a414a" fill="none"/><path d="M1061 480c0-11.05-8.95-20-20-20s-20 8.95-20 20 8.95 20 20 20 20-8.95 20-20z" stroke="#3a414a" fill="#cfe4ff"/><use xlink:href="#x" transform="matrix(1,0,0,1,1026,465) translate(6.5 14.4)"/><path d="M1062 480h19.1a.14.14 0 0 0 .15-.14.14.14 0 0 1 .14-.14h19.1" stroke="#3a414a" fill="none"/><path d="M1062 480.5h-.52l.02-.52-.06-.48h.57z" stroke="#3a414a" stroke-width=".05" fill="#3a414a"/><path d="M1100.5 479.72h.5" stroke="#3a414a" fill="none"/><path d="M1428 440c0 4.42-3.58 8-8 8s-8-3.58-8-8 3.58-8 8-8 8 3.58 8 8" stroke="#3a414a" fill="#fff"/><path d="M1404 430v20l15-10zm15 10h2zm2 0l15-10v20z" stroke="#3a414a" fill="#fff"/><use xlink:href="#u" transform="matrix(1,0,0,1,1370,465) translate(13.641975308641975 17.77777777777778)"/><use xlink:href="#l" transform="matrix(1,0,0,1,1370,465) translate(23.08641975308642 44.44444444444444)"/><path d="M1437.5 440H1559" stroke="#e81313" stroke-width="2" fill="none"/><path d="M1437.53 441h-1.03v-2h1.03z" stroke="#e81313" stroke-width=".05" fill="#e81313"/><path d="M1558.97 440h1.03" stroke="#e81313" stroke-width="2" fill="none"/><path d="M435 440c0-11.05-8.95-20-20-20s-20 8.95-20 20 8.95 20 20 20 20-8.95 20-20zM395 440h40" stroke="#3a414a" fill="#fff"/><g><use xlink:href="#y" transform="matrix(1,0,0,1,400,425) translate(3.5249999999999986 14.4)"/></g><path d="M680 566a6 6 0 0 1 6-6h88a6 6 0 0 1 6 6v48a6 6 0 0 1-6 6h-88a6 6 0 0 1-6-6z" stroke="#000" stroke-opacity="0" fill="#fff" fill-opacity="0"/><g><use xlink:href="#z" transform="matrix(1,0,0,1,685,565) translate(21.635802469135804 17.77777777777778)"/><use xlink:href="#A" transform="matrix(1,0,0,1,685,565) translate(16.666666666666668 44.44444444444444)"/></g><path d="M90 551.6a6 6 0 0 1 6-6h88a6 6 0 0 1 6 6v48a6 6 0 0 1-6 6H96a6 6 0 0 1-6-6z" stroke="#000" stroke-opacity="0" fill="#fff" fill-opacity="0"/><g><use xlink:href="#z" transform="matrix(1,0,0,1,95,550.599280408404) translate(21.635802469135804 17.77777777777778)"/><use xlink:href="#A" transform="matrix(1,0,0,1,95,550.599280408404) translate(16.666666666666668 44.44444444444444)"/></g><path d="M415 461v93.97a.17.17 0 0 1-.17.17.17.17 0 0 0-.16.17v93.98" stroke="#3a414a" fill="none"/><path d="M415.5 461h-1v-.52l.52.02.48-.06z" stroke="#3a414a" stroke-width=".05" fill="#3a414a"/><path d="M414.67 649.26v.52" stroke="#3a414a" fill="none"/><defs><path fill="#3a414a" d="M212-179c-10-28-35-45-73-45-59 0-87 40-87 99 0 60 29 101 89 101 43 0 62-24 78-52l27 14C228-24 195 4 139 4 59 4 22-46 18-125c-6-104 99-153 187-111 19 9 31 26 39 46" id="B"/><path fill="#3a414a" d="M100-194c63 0 86 42 84 106H49c0 40 14 67 53 68 26 1 43-12 49-29l28 8c-11 28-37 45-77 45C44 4 14-33 15-96c1-61 26-98 85-98zm52 81c6-60-76-77-97-28-3 7-6 17-6 28h103" id="C"/><path fill="#3a414a" d="M117-194c89-4 53 116 60 194h-32v-121c0-31-8-49-39-48C34-167 62-67 57 0H25l-1-190h30c1 10-1 24 2 32 11-22 29-35 61-36" id="D"/><path fill="#3a414a" d="M59-47c-2 24 18 29 38 22v24C64 9 27 4 27-40v-127H5v-23h24l9-43h21v43h35v23H59v120" id="E"/><path fill="#3a414a" d="M114-163C36-179 61-72 57 0H25l-1-190h30c1 12-1 29 2 39 6-27 23-49 58-41v29" id="F"/><path fill="#3a414a" d="M24-231v-30h32v30H24zM24 0v-190h32V0H24" id="G"/><path fill="#3a414a" d="M101-234c-31-9-42 10-38 44h38v23H63V0H32v-167H5v-23h27c-7-52 17-82 69-68v24" id="H"/><path fill="#3a414a" d="M84 4C-5 8 30-112 23-190h32v120c0 31 7 50 39 49 72-2 45-101 50-169h31l1 190h-30c-1-10 1-25-2-33-11 22-28 36-60 37" id="I"/><path fill="#3a414a" d="M177-190C167-65 218 103 67 71c-23-6-38-20-44-43l32-5c15 47 100 32 89-28v-30C133-14 115 1 83 1 29 1 15-40 15-95c0-56 16-97 71-98 29-1 48 16 59 35 1-10 0-23 2-32h30zM94-22c36 0 50-32 50-73 0-42-14-75-50-75-39 0-46 34-46 75s6 73 46 73" id="J"/><path fill="#3a414a" d="M141-36C126-15 110 5 73 4 37 3 15-17 15-53c-1-64 63-63 125-63 3-35-9-54-41-54-24 1-41 7-42 31l-33-3c5-37 33-52 76-52 45 0 72 20 72 64v82c-1 20 7 32 28 27v20c-31 9-61-2-59-35zM48-53c0 20 12 33 32 33 41-3 63-29 60-74-43 2-92-5-92 41" id="K"/><path fill="#3a414a" d="M24 0v-261h32V0H24" id="L"/><g id="a"><use transform="matrix(0.06172839506172839,0,0,0.06172839506172839,0,0)" xlink:href="#B"/><use transform="matrix(0.06172839506172839,0,0,0.06172839506172839,15.987654320987653,0)" xlink:href="#C"/><use transform="matrix(0.06172839506172839,0,0,0.06172839506172839,28.333333333333332,0)" xlink:href="#D"/><use transform="matrix(0.06172839506172839,0,0,0.06172839506172839,40.67901234567901,0)" xlink:href="#E"/><use transform="matrix(0.06172839506172839,0,0,0.06172839506172839,46.851851851851855,0)" xlink:href="#F"/><use transform="matrix(0.06172839506172839,0,0,0.06172839506172839,54.19753086419753,0)" xlink:href="#G"/><use transform="matrix(0.06172839506172839,0,0,0.06172839506172839,59.074074074074076,0)" xlink:href="#H"/><use transform="matrix(0.06172839506172839,0,0,0.06172839506172839,65.24691358024691,0)" xlink:href="#I"/><use transform="matrix(0.06172839506172839,0,0,0.06172839506172839,77.5925925925926,0)" xlink:href="#J"/><use transform="matrix(0.06172839506172839,0,0,0.06172839506172839,89.93827160493828,0)" xlink:href="#K"/><use transform="matrix(0.06172839506172839,0,0,0.06172839506172839,102.28395061728396,0)" xlink:href="#L"/></g><path fill="#3a414a" d="M30-248c87 1 191-15 191 75 0 78-77 80-158 76V0H30v-248zm33 125c57 0 124 11 124-50 0-59-68-47-124-48v98" id="M"/><path fill="#3a414a" d="M210-169c-67 3-38 105-44 169h-31v-121c0-29-5-50-35-48C34-165 62-65 56 0H25l-1-190h30c1 10-1 24 2 32 10-44 99-50 107 0 11-21 27-35 58-36 85-2 47 119 55 194h-31v-121c0-29-5-49-35-48" id="N"/><path fill="#3a414a" d="M115-194c55 1 70 41 70 98S169 2 115 4C84 4 66-9 55-30l1 105H24l-1-265h31l2 30c10-21 28-34 59-34zm-8 174c40 0 45-34 45-75s-6-73-45-74c-42 0-51 32-51 76 0 43 10 73 51 73" id="O"/><g id="b"><use transform="matrix(0.06172839506172839,0,0,0.06172839506172839,0,0)" xlink:href="#M"/><use transform="matrix(0.06172839506172839,0,0,0.06172839506172839,14.814814814814813,0)" xlink:href="#I"/><use transform="matrix(0.06172839506172839,0,0,0.06172839506172839,27.160493827160494,0)" xlink:href="#N"/><use transform="matrix(0.06172839506172839,0,0,0.06172839506172839,45.61728395061728,0)" xlink:href="#O"/></g><path fill="#3a414a" d="M185-189c-5-48-123-54-124 2 14 75 158 14 163 119 3 78-121 87-175 55-17-10-28-26-33-46l33-7c5 56 141 63 141-1 0-78-155-14-162-118-5-82 145-84 179-34 5 7 8 16 11 25" id="P"/><path fill="#3a414a" d="M106-169C34-169 62-67 57 0H25v-261h32l-1 103c12-21 28-36 61-36 89 0 53 116 60 194h-32v-121c2-32-8-49-39-48" id="Q"/><g id="c"><use transform="matrix(0.06172839506172839,0,0,0.06172839506172839,0,0)" xlink:href="#P"/><use transform="matrix(0.06172839506172839,0,0,0.06172839506172839,14.814814814814813,0)" xlink:href="#Q"/><use transform="matrix(0.06172839506172839,0,0,0.06172839506172839,27.160493827160494,0)" xlink:href="#C"/><use transform="matrix(0.06172839506172839,0,0,0.06172839506172839,39.50617283950617,0)" xlink:href="#L"/><use transform="matrix(0.06172839506172839,0,0,0.06172839506172839,44.382716049382715,0)" xlink:href="#L"/></g><path fill="#3a414a" d="M85-194c31 0 48 13 60 33l-1-100h32l1 261h-30c-2-10 0-23-3-31C134-8 116 4 85 4 32 4 16-35 15-94c0-66 23-100 70-100zm9 24c-40 0-46 34-46 75 0 40 6 74 45 74 42 0 51-32 51-76 0-42-9-74-50-73" id="R"/><g id="d"><use transform="matrix(0.06172839506172839,0,0,0.06172839506172839,0,0)" xlink:href="#K"/><use transform="matrix(0.06172839506172839,0,0,0.06172839506172839,12.345679012345679,0)" xlink:href="#D"/><use transform="matrix(0.06172839506172839,0,0,0.06172839506172839,24.691358024691358,0)" xlink:href="#R"/></g><path fill="#3a414a" d="M127-220V0H93v-220H8v-28h204v28h-85" id="S"/><path fill="#3a414a" d="M115-194c53 0 69 39 70 98 0 66-23 100-70 100C84 3 66-7 56-30L54 0H23l1-261h32v101c10-23 28-34 59-34zm-8 174c40 0 45-34 45-75 0-40-5-75-45-74-42 0-51 32-51 76 0 43 10 73 51 73" id="T"/><g id="e"><use transform="matrix(0.06172839506172839,0,0,0.06172839506172839,0,0)" xlink:href="#S"/><use transform="matrix(0.06172839506172839,0,0,0.06172839506172839,12.716049382716047,0)" xlink:href="#I"/><use transform="matrix(0.06172839506172839,0,0,0.06172839506172839,25.061728395061728,0)" xlink:href="#T"/><use transform="matrix(0.06172839506172839,0,0,0.06172839506172839,37.407407407407405,0)" xlink:href="#C"/></g><path fill="#3a414a" d="M197 0v-115H63V0H30v-248h33v105h134v-105h34V0h-34" id="U"/><g id="f"><use transform="matrix(0.06172839506172839,0,0,0.06172839506172839,0,0)" xlink:href="#U"/><use transform="matrix(0.06172839506172839,0,0,0.06172839506172839,15.987654320987653,0)" xlink:href="#C"/><use transform="matrix(0.06172839506172839,0,0,0.06172839506172839,28.333333333333332,0)" xlink:href="#K"/><use transform="matrix(0.06172839506172839,0,0,0.06172839506172839,40.67901234567901,0)" xlink:href="#E"/></g><path fill="#3a414a" d="M30 0v-248h187v28H63v79h144v27H63v87h162V0H30" id="V"/><path fill="#3a414a" d="M141 0L90-78 38 0H4l68-98-65-92h35l48 74 47-74h35l-64 92 68 98h-35" id="W"/><path fill="#3a414a" d="M96-169c-40 0-48 33-48 73s9 75 48 75c24 0 41-14 43-38l32 2c-6 37-31 61-74 61-59 0-76-41-82-99-10-93 101-131 147-64 4 7 5 14 7 22l-32 3c-4-21-16-35-41-35" id="X"/><g id="g"><use transform="matrix(0.06172839506172839,0,0,0.06172839506172839,0,0)" xlink:href="#V"/><use transform="matrix(0.06172839506172839,0,0,0.06172839506172839,14.814814814814813,0)" xlink:href="#W"/><use transform="matrix(0.06172839506172839,0,0,0.06172839506172839,25.925925925925924,0)" xlink:href="#X"/><use transform="matrix(0.06172839506172839,0,0,0.06172839506172839,37.03703703703704,0)" xlink:href="#Q"/><use transform="matrix(0.06172839506172839,0,0,0.06172839506172839,49.382716049382715,0)" xlink:href="#K"/><use transform="matrix(0.06172839506172839,0,0,0.06172839506172839,61.72839506172839,0)" xlink:href="#D"/><use transform="matrix(0.06172839506172839,0,0,0.06172839506172839,74.07407407407408,0)" xlink:href="#J"/><use transform="matrix(0.06172839506172839,0,0,0.06172839506172839,86.41975308641976,0)" xlink:href="#C"/><use transform="matrix(0.06172839506172839,0,0,0.06172839506172839,98.76543209876544,0)" xlink:href="#F"/></g><path fill="#3a414a" d="M140-251c81 0 123 46 123 126C263-46 219 4 140 4 59 4 17-45 17-125s42-126 123-126zm0 227c63 0 89-41 89-101s-29-99-89-99c-61 0-89 39-89 99S79-25 140-24" id="Y"/><g id="h"><use transform="matrix(0.06172839506172839,0,0,0.06172839506172839,0,0)" xlink:href="#Y"/><use transform="matrix(0.06172839506172839,0,0,0.06172839506172839,17.28395061728395,0)" xlink:href="#O"/><use transform="matrix(0.06172839506172839,0,0,0.06172839506172839,29.629629629629626,0)" xlink:href="#C"/><use transform="matrix(0.06172839506172839,0,0,0.06172839506172839,41.9753086419753,0)" xlink:href="#D"/></g><path fill="#3a414a" d="M100-194c62-1 85 37 85 99 1 63-27 99-86 99S16-35 15-95c0-66 28-99 85-99zM99-20c44 1 53-31 53-75 0-43-8-75-51-75s-53 32-53 75 10 74 51 75" id="Z"/><g id="i"><use transform="matrix(0.06172839506172839,0,0,0.06172839506172839,0,0)" xlink:href="#S"/><use transform="matrix(0.06172839506172839,0,0,0.06172839506172839,11.049382716049381,0)" xlink:href="#Z"/><use transform="matrix(0.06172839506172839,0,0,0.06172839506172839,23.39506172839506,0)" xlink:href="#O"/></g><path fill="#3a414a" d="M143 0L79-87 56-68V0H24v-261h32v163l83-92h37l-77 82L181 0h-38" id="aa"/><g id="j"><use transform="matrix(0.06172839506172839,0,0,0.06172839506172839,0,0)" xlink:href="#S"/><use transform="matrix(0.06172839506172839,0,0,0.06172839506172839,11.049382716049381,0)" xlink:href="#K"/><use transform="matrix(0.06172839506172839,0,0,0.06172839506172839,23.39506172839506,0)" xlink:href="#D"/><use transform="matrix(0.06172839506172839,0,0,0.06172839506172839,35.74074074074074,0)" xlink:href="#aa"/></g><g id="k"><use transform="matrix(0.06172839506172839,0,0,0.06172839506172839,0,0)" xlink:href="#B"/><use transform="matrix(0.06172839506172839,0,0,0.06172839506172839,15.987654320987653,0)" xlink:href="#Z"/><use transform="matrix(0.06172839506172839,0,0,0.06172839506172839,28.333333333333332,0)" xlink:href="#D"/><use transform="matrix(0.06172839506172839,0,0,0.06172839506172839,40.67901234567901,0)" xlink:href="#E"/><use transform="matrix(0.06172839506172839,0,0,0.06172839506172839,46.851851851851855,0)" xlink:href="#F"/><use transform="matrix(0.06172839506172839,0,0,0.06172839506172839,54.19753086419753,0)" xlink:href="#Z"/><use transform="matrix(0.06172839506172839,0,0,0.06172839506172839,66.54320987654322,0)" xlink:href="#L"/></g><path fill="#3a414a" d="M137 0h-34L2-248h35l83 218 83-218h36" id="ab"/><path fill="#3a414a" d="M108 0H70L1-190h34L89-25l56-165h34" id="ac"/><g id="l"><use transform="matrix(0.06172839506172839,0,0,0.06172839506172839,0,0)" xlink:href="#ab"/><use transform="matrix(0.06172839506172839,0,0,0.06172839506172839,13.148148148148147,0)" xlink:href="#K"/><use transform="matrix(0.06172839506172839,0,0,0.06172839506172839,25.493827160493826,0)" xlink:href="#L"/><use transform="matrix(0.06172839506172839,0,0,0.06172839506172839,30.370370370370367,0)" xlink:href="#ac"/><use transform="matrix(0.06172839506172839,0,0,0.06172839506172839,41.48148148148148,0)" xlink:href="#C"/></g><path fill="#3a414a" d="M30-248c118-7 216 8 213 122C240-48 200 0 122 0H30v-248zM63-27c89 8 146-16 146-99s-60-101-146-95v194" id="ad"/><g id="m"><use transform="matrix(0.06172839506172839,0,0,0.06172839506172839,0,0)" xlink:href="#ad"/><use transform="matrix(0.06172839506172839,0,0,0.06172839506172839,15.987654320987653,0)" xlink:href="#F"/><use transform="matrix(0.06172839506172839,0,0,0.06172839506172839,23.333333333333332,0)" xlink:href="#K"/><use transform="matrix(0.06172839506172839,0,0,0.06172839506172839,35.67901234567901,0)" xlink:href="#G"/><use transform="matrix(0.06172839506172839,0,0,0.06172839506172839,40.55555555555556,0)" xlink:href="#D"/></g><g id="n"><use transform="matrix(0.06172839506172839,0,0,0.06172839506172839,0,0)" xlink:href="#P"/><use transform="matrix(0.06172839506172839,0,0,0.06172839506172839,14.814814814814813,0)" xlink:href="#E"/><use transform="matrix(0.06172839506172839,0,0,0.06172839506172839,20.98765432098765,0)" xlink:href="#C"/><use transform="matrix(0.06172839506172839,0,0,0.06172839506172839,33.33333333333333,0)" xlink:href="#K"/><use transform="matrix(0.06172839506172839,0,0,0.06172839506172839,45.679012345679006,0)" xlink:href="#N"/></g><g id="o"><use transform="matrix(0.06172839506172839,0,0,0.06172839506172839,0,0)" xlink:href="#S"/><use transform="matrix(0.06172839506172839,0,0,0.06172839506172839,12.716049382716047,0)" xlink:href="#F"/><use transform="matrix(0.06172839506172839,0,0,0.06172839506172839,20.061728395061728,0)" xlink:href="#K"/><use transform="matrix(0.06172839506172839,0,0,0.06172839506172839,32.407407407407405,0)" xlink:href="#O"/></g><path fill="#3a414a" d="M266 0h-40l-56-210L115 0H75L2-248h35L96-30l15-64 43-154h32l59 218 59-218h35" id="ae"/><g id="p"><use transform="matrix(0.06172839506172839,0,0,0.06172839506172839,0,0)" xlink:href="#ae"/><use transform="matrix(0.06172839506172839,0,0,0.06172839506172839,20.123456790123456,0)" xlink:href="#K"/><use transform="matrix(0.06172839506172839,0,0,0.06172839506172839,32.46913580246913,0)" xlink:href="#E"/><use transform="matrix(0.06172839506172839,0,0,0.06172839506172839,38.641975308641975,0)" xlink:href="#C"/><use transform="matrix(0.06172839506172839,0,0,0.06172839506172839,50.98765432098765,0)" xlink:href="#F"/></g><path fill="#3a414a" d="M33 0v-248h34V0H33" id="af"/><g id="q"><use transform="matrix(0.06172839506172839,0,0,0.06172839506172839,0,0)" xlink:href="#af"/><use transform="matrix(0.06172839506172839,0,0,0.06172839506172839,6.172839506172839,0)" xlink:href="#D"/><use transform="matrix(0.06172839506172839,0,0,0.06172839506172839,18.51851851851852,0)" xlink:href="#L"/><use transform="matrix(0.06172839506172839,0,0,0.06172839506172839,23.395061728395063,0)" xlink:href="#C"/><use transform="matrix(0.06172839506172839,0,0,0.06172839506172839,35.74074074074074,0)" xlink:href="#E"/></g><path d="M127-220V0H93v-220H8v-28h204v28h-85" id="ag"/><path d="M30 0v-248h187v28H63v79h144v27H63v87h162V0H30" id="ah"/><g id="r"><use transform="matrix(0.05,0,0,0.05,0,0)" xlink:href="#ag"/><use transform="matrix(0.05,0,0,0.05,10.950000000000001,0)" xlink:href="#ah"/></g><path d="M197 0v-115H63V0H30v-248h33v105h134v-105h34V0h-34" id="ai"/><use transform="matrix(0.05,0,0,0.05,0,0)" xlink:href="#ai" id="s"/><path fill="#3a414a" d="M135-143c-3-34-86-38-87 0 15 53 115 12 119 90S17 21 10-45l28-5c4 36 97 45 98 0-10-56-113-15-118-90-4-57 82-63 122-42 12 7 21 19 24 35" id="aj"/><g id="t"><use transform="matrix(0.06172839506172839,0,0,0.06172839506172839,0,0)" xlink:href="#M"/><use transform="matrix(0.06172839506172839,0,0,0.06172839506172839,14.814814814814813,0)" xlink:href="#F"/><use transform="matrix(0.06172839506172839,0,0,0.06172839506172839,22.160493827160494,0)" xlink:href="#C"/><use transform="matrix(0.06172839506172839,0,0,0.06172839506172839,34.50617283950617,0)" xlink:href="#aj"/><use transform="matrix(0.06172839506172839,0,0,0.06172839506172839,45.61728395061728,0)" xlink:href="#aj"/><use transform="matrix(0.06172839506172839,0,0,0.06172839506172839,56.72839506172839,0)" xlink:href="#I"/><use transform="matrix(0.06172839506172839,0,0,0.06172839506172839,69.07407407407408,0)" xlink:href="#F"/><use transform="matrix(0.06172839506172839,0,0,0.06172839506172839,76.41975308641976,0)" xlink:href="#C"/></g><path fill="#3a414a" d="M240 0l2-218c-23 76-54 145-80 218h-23L58-218 59 0H30v-248h44l77 211c21-75 51-140 76-211h43V0h-30" id="ak"/><g id="u"><use transform="matrix(0.06172839506172839,0,0,0.06172839506172839,0,0)" xlink:href="#ak"/><use transform="matrix(0.06172839506172839,0,0,0.06172839506172839,18.456790123456788,0)" xlink:href="#K"/><use transform="matrix(0.06172839506172839,0,0,0.06172839506172839,30.80246913580247,0)" xlink:href="#D"/><use transform="matrix(0.06172839506172839,0,0,0.06172839506172839,43.148148148148145,0)" xlink:href="#I"/><use transform="matrix(0.06172839506172839,0,0,0.06172839506172839,55.49382716049382,0)" xlink:href="#K"/><use transform="matrix(0.06172839506172839,0,0,0.06172839506172839,67.8395061728395,0)" xlink:href="#L"/></g><path d="M63-220v92h138v28H63V0H30v-248h175v28H63" id="al"/><g id="v"><use transform="matrix(0.05,0,0,0.05,0,0)" xlink:href="#al"/><use transform="matrix(0.05,0,0,0.05,10.950000000000001,0)" xlink:href="#ah"/></g><path d="M212-179c-10-28-35-45-73-45-59 0-87 40-87 99 0 60 29 101 89 101 43 0 62-24 78-52l27 14C228-24 195 4 139 4 59 4 22-46 18-125c-6-104 99-153 187-111 19 9 31 26 39 46" id="am"/><g id="w"><use transform="matrix(0.05,0,0,0.05,0,0)" xlink:href="#al"/><use transform="matrix(0.05,0,0,0.05,10.950000000000001,0)" xlink:href="#am"/></g><path d="M30-248c87 1 191-15 191 75 0 78-77 80-158 76V0H30v-248zm33 125c57 0 124 11 124-50 0-59-68-47-124-48v98" id="an"/><path d="M33 0v-248h34V0H33" id="ao"/><g id="x"><use transform="matrix(0.05,0,0,0.05,0,0)" xlink:href="#an"/><use transform="matrix(0.05,0,0,0.05,12,0)" xlink:href="#ao"/></g><path d="M30 0v-248h33v221h125V0H30" id="ap"/><g id="y"><use transform="matrix(0.05,0,0,0.05,0,0)" xlink:href="#ap"/><use transform="matrix(0.05,0,0,0.05,10,0)" xlink:href="#am"/></g><path fill="#3a414a" d="M63-220v92h138v28H63V0H30v-248h175v28H63" id="aq"/><path fill="#3a414a" d="M206 0h-36l-40-164L89 0H53L-1-190h32L70-26l43-164h34l41 164 42-164h31" id="ar"/><g id="z"><use transform="matrix(0.06172839506172839,0,0,0.06172839506172839,0,0)" xlink:href="#aq"/><use transform="matrix(0.06172839506172839,0,0,0.06172839506172839,13.518518518518517,0)" xlink:href="#L"/><use transform="matrix(0.06172839506172839,0,0,0.06172839506172839,18.39506172839506,0)" xlink:href="#Z"/><use transform="matrix(0.06172839506172839,0,0,0.06172839506172839,30.74074074074074,0)" xlink:href="#ar"/></g><g id="A"><use transform="matrix(0.06172839506172839,0,0,0.06172839506172839,0,0)" xlink:href="#ak"/><use transform="matrix(0.06172839506172839,0,0,0.06172839506172839,18.456790123456788,0)" xlink:href="#C"/><use transform="matrix(0.06172839506172839,0,0,0.06172839506172839,30.80246913580247,0)" xlink:href="#E"/><use transform="matrix(0.06172839506172839,0,0,0.06172839506172839,36.97530864197531,0)" xlink:href="#C"/><use transform="matrix(0.06172839506172839,0,0,0.06172839506172839,49.32098765432099,0)" xlink:href="#F"/></g></defs></g></svg>